<svg width="108" height="38" viewBox="0 0 108 38" fill="none" xmlns="http://www.w3.org/2000/svg">
<path d="M15.504 2.304C17.616 2.304 19.52 2.624 21.216 3.264C22.912 3.904 24.496 4.848 25.968 6.096L21.792 11.04C20.8 10.304 19.84 9.744 18.912 9.36C17.984 8.976 16.992 8.784 15.936 8.784C13.824 8.784 12.176 9.696 10.992 11.52C9.808 13.344 9.216 16.096 9.216 19.776C9.216 23.456 9.808 26.192 10.992 27.984C12.208 29.776 13.888 30.672 16.032 30.672C17.184 30.672 18.24 30.448 19.2 30C20.192 29.52 21.264 28.832 22.416 27.936L26.352 32.928C25.04 34.24 23.456 35.312 21.6 36.144C19.776 36.976 17.792 37.392 15.648 37.392C12.48 37.392 9.712 36.72 7.344 35.376C5.008 34 3.2 32 1.92 29.376C0.64 26.72 0 23.52 0 19.776C0 16.128 0.656 12.992 1.968 10.368C3.28 7.744 5.104 5.744 7.44 4.368C9.776 2.992 12.464 2.304 15.504 2.304Z" fill="#141414"/>
<path d="M39.5794 10.08C43.5794 10.08 46.7154 11.28 48.9874 13.68C51.2594 16.08 52.3954 19.44 52.3954 23.76C52.3954 26.512 51.8834 28.912 50.8594 30.96C49.8354 33.008 48.3474 34.592 46.3954 35.712C44.4754 36.832 42.2034 37.392 39.5794 37.392C35.5794 37.392 32.4434 36.192 30.1714 33.792C27.8994 31.392 26.7634 28.032 26.7634 23.712C26.7634 20.96 27.2754 18.56 28.2994 16.512C29.3234 14.464 30.7954 12.88 32.7154 11.76C34.6674 10.64 36.9554 10.08 39.5794 10.08ZM39.5794 16.272C38.2034 16.272 37.1794 16.88 36.5074 18.096C35.8674 19.28 35.5474 21.152 35.5474 23.712C35.5474 26.368 35.8674 28.288 36.5074 29.472C37.1794 30.624 38.2034 31.2 39.5794 31.2C40.9554 31.2 41.9634 30.608 42.6034 29.424C43.2754 28.208 43.6114 26.32 43.6114 23.76C43.6114 21.136 43.2754 19.232 42.6034 18.048C41.9634 16.864 40.9554 16.272 39.5794 16.272Z" fill="#141414"/>
<path d="M63.3866 37.392C60.9866 37.392 59.1306 36.72 57.8186 35.376C56.5066 34.032 55.8506 32.096 55.8506 29.568V0.864L64.3946 0V29.28C64.3946 30.208 64.8106 30.672 65.6426 30.672C65.9946 30.672 66.3626 30.608 66.7466 30.48L68.3306 36.528C67.0186 37.104 65.3706 37.392 63.3866 37.392Z" fill="#141414"/>
<path d="M77.7304 37.392C75.3304 37.392 73.4744 36.72 72.1624 35.376C70.8504 34.032 70.1944 32.096 70.1944 29.568V0.864L78.7384 0V29.28C78.7384 30.208 79.1544 30.672 79.9864 30.672C80.3384 30.672 80.7064 30.608 81.0904 30.48L82.6744 36.528C81.3624 37.104 79.7144 37.392 77.7304 37.392Z" fill="#141414"/>
<path d="M107.728 23.328C107.728 23.52 107.68 24.48 107.584 26.208H91.9358C92.1598 28.16 92.7037 29.504 93.5677 30.24C94.4637 30.944 95.7277 31.296 97.3597 31.296C98.3197 31.296 99.2637 31.12 100.192 30.768C101.152 30.384 102.192 29.808 103.312 29.04L106.768 33.744C105.424 34.864 103.888 35.76 102.16 36.432C100.432 37.072 98.5597 37.392 96.5437 37.392C92.1917 37.392 88.8798 36.176 86.6077 33.744C84.3677 31.28 83.2477 27.984 83.2477 23.856C83.2477 21.264 83.7117 18.928 84.6397 16.848C85.5997 14.768 87.0077 13.12 88.8637 11.904C90.7197 10.688 92.9597 10.08 95.5837 10.08C99.3277 10.08 102.288 11.248 104.464 13.584C106.64 15.888 107.728 19.136 107.728 23.328ZM99.3278 20.928C99.2958 19.232 99.0078 17.92 98.4638 16.992C97.9198 16.064 97.0078 15.6 95.7278 15.6C94.5438 15.6 93.6477 16.016 93.0397 16.848C92.4317 17.68 92.0477 19.136 91.8877 21.216H99.3278V20.928Z" fill="#141414"/>
</svg>
