<svg width="32" height="32" viewBox="0 0 32 32" fill="none" xmlns="http://www.w3.org/2000/svg">
<rect width="32" height="32" fill="white"/>
<path d="M10.732 28L8.48337 22.806L27.7514 0.984843L30 6.17882L10.732 28Z" fill="#EF6014"/>
<path d="M6.2486 27.0152L4 21.8212L23.268 0L25.5166 5.19398L6.2486 27.0152Z" fill="#FA7D2F"/>
<path d="M12.4482 18.2002C12.943 18.2002 13.4492 18.0879 13.9668 17.8633C14.4876 17.6354 14.8994 17.3018 15.2021 16.8623C15.2021 16.82 15.1826 16.7842 15.1436 16.7549C15.1077 16.7256 15.0671 16.7109 15.0215 16.7109C14.5332 17.3034 13.8154 17.5996 12.8682 17.5996C11.8688 17.5996 11.1136 17.2985 10.6025 16.6963C10.0947 16.0908 9.84082 15.3389 9.84082 14.4404C9.84082 14.0335 9.88477 13.6413 9.97266 13.2637C10.0638 12.8828 10.2038 12.5199 10.3926 12.1748C10.5846 11.8265 10.8564 11.5449 11.208 11.3301C11.5628 11.1152 11.9762 11.0078 12.4482 11.0078C12.7705 11.0078 13.0684 11.0583 13.3418 11.1592C13.6152 11.2601 13.8398 11.3789 14.0156 11.5156C14.1914 11.6523 14.3623 11.8363 14.5283 12.0674C14.6976 12.2952 14.8245 12.4938 14.9092 12.6631C14.9971 12.8291 15.1012 13.0407 15.2217 13.2979C15.3193 13.2848 15.3796 13.249 15.4023 13.1904C15.1615 12.2236 14.7969 11.5612 14.3086 11.2031C13.8236 10.8418 13.2035 10.6611 12.4482 10.6611C12.1423 10.6611 11.8298 10.6986 11.5107 10.7734C11.1917 10.8451 10.863 10.9753 10.5244 11.1641C10.1891 11.3496 9.8929 11.5807 9.63574 11.8574C9.37858 12.1309 9.16699 12.4922 9.00098 12.9414C8.83496 13.3874 8.75195 13.887 8.75195 14.4404C8.75195 14.9938 8.83496 15.4935 9.00098 15.9395C9.16699 16.3854 9.37858 16.7451 9.63574 17.0186C9.8929 17.292 10.1891 17.5215 10.5244 17.707C10.863 17.8893 11.1917 18.0163 11.5107 18.0879C11.8298 18.1628 12.1423 18.2002 12.4482 18.2002ZM15.0996 13.5176C14.9596 13.2051 14.8311 12.9479 14.7139 12.7461C14.5967 12.541 14.4404 12.3132 14.2451 12.0625C14.0498 11.8086 13.8171 11.6117 13.5469 11.4717C13.2767 11.3317 12.974 11.2471 12.6387 11.2178C12.2676 11.2471 11.9437 11.3659 11.667 11.5742C11.3903 11.7793 11.1755 12.043 11.0225 12.3652C10.8727 12.6875 10.762 13.0228 10.6904 13.3711C10.6221 13.7161 10.5879 14.0726 10.5879 14.4404C10.5879 15.2607 10.7946 15.9492 11.208 16.5059C11.6214 17.0625 12.2383 17.3604 13.0586 17.3994C13.8529 17.3604 14.4762 17.0641 14.9287 16.5107C15.0557 16.5107 15.1663 16.5531 15.2607 16.6377C15.3551 16.7191 15.4023 16.8167 15.4023 16.9307C15.0736 17.4092 14.6292 17.7738 14.0693 18.0244C13.5094 18.2751 12.9691 18.4004 12.4482 18.4004C12.1227 18.4004 11.7923 18.3613 11.457 18.2832C11.125 18.2083 10.7799 18.0749 10.4219 17.8828C10.0671 17.6875 9.75293 17.445 9.47949 17.1553C9.20605 16.8656 8.98307 16.4863 8.81055 16.0176C8.63802 15.5456 8.55176 15.0199 8.55176 14.4404C8.55176 13.835 8.64128 13.2946 8.82031 12.8193C8.99935 12.3408 9.22884 11.9583 9.50879 11.6719C9.78874 11.3854 10.1159 11.1478 10.4902 10.959C10.8646 10.7669 11.2275 10.6367 11.5791 10.5684C11.9339 10.4967 12.2904 10.4609 12.6484 10.4609C13.1367 10.4609 13.6673 10.526 14.2402 10.6562C14.8132 10.7865 15.2233 10.8678 15.4707 10.9004C15.3633 11.3203 15.321 11.6898 15.3438 12.0088C15.3665 12.3245 15.4593 12.7119 15.6221 13.1709C15.5277 13.363 15.3535 13.4785 15.0996 13.5176ZM18.6836 11.1592H18.6934C18.8952 11.1462 19.1556 11.1396 19.4746 11.1396C19.9694 11.1396 20.347 11.2926 20.6074 11.5986C20.8711 11.9046 21.0029 12.3018 21.0029 12.79C21.0029 13.2848 20.8825 13.7145 20.6416 14.0791C20.404 14.4404 20.0312 14.6211 19.5234 14.6211C19.224 14.6211 18.9277 14.5837 18.6348 14.5088C18.6348 13.363 18.651 12.2464 18.6836 11.1592ZM20.8027 12.79C20.8027 12.3701 20.6758 12.0169 20.4219 11.7305C20.1712 11.444 19.8392 11.3171 19.4258 11.3496C19.3997 12.6029 19.3867 13.6071 19.3867 14.3623C19.4518 14.3818 19.5511 14.3981 19.6846 14.4111C20.0654 14.3688 20.347 14.1898 20.5293 13.874C20.7116 13.5583 20.8027 13.1969 20.8027 12.79ZM17.7461 17.3311C17.7396 17.5719 17.362 17.7282 16.6133 17.7998C16.5872 17.8519 16.5872 17.9284 16.6133 18.0293C17.1667 18.0098 17.7347 18 18.3174 18C19.0107 18 19.6764 18.0098 20.3145 18.0293C20.3405 17.9772 20.3405 17.9007 20.3145 17.7998C19.2337 17.7347 18.6901 17.5785 18.6836 17.3311C18.651 16.4163 18.6348 15.5993 18.6348 14.8799C19.0026 14.9548 19.3428 14.9922 19.6553 14.9922C20.1891 15.985 20.8923 16.9876 21.7646 18C21.9307 18 22.1699 18.0016 22.4824 18.0049C22.7982 18.0081 23.0814 18.0114 23.332 18.0146C23.5859 18.0179 23.8268 18.0228 24.0547 18.0293C24.0807 17.9707 24.0807 17.8942 24.0547 17.7998C23.5208 17.7607 23.07 17.6305 22.7021 17.4092C22.3376 17.1846 21.9111 16.7712 21.4229 16.1689C21.0908 15.749 20.7913 15.3063 20.5244 14.8408C21.0062 14.6813 21.3854 14.416 21.6621 14.0449C21.9388 13.6738 22.0771 13.2555 22.0771 12.79C22.0771 12.2041 21.8883 11.7305 21.5107 11.3691C21.1331 11.0046 20.6107 10.8223 19.9434 10.8223C17.7428 10.8483 16.6361 10.8483 16.623 10.8223C16.6035 10.9004 16.6035 10.9769 16.623 11.0518C17.3717 11.1234 17.7493 11.2796 17.7559 11.5205C17.7884 12.2855 17.8047 13.1953 17.8047 14.25C17.8047 15.2819 17.7852 16.3089 17.7461 17.3311ZM17.5459 17.3213C17.585 16.5075 17.6045 15.4837 17.6045 14.25C17.6045 13.2018 17.5882 12.2952 17.5557 11.5303C17.5492 11.4098 17.1862 11.3138 16.4668 11.2422C16.4115 11.0273 16.418 10.8174 16.4863 10.6123C16.8444 10.6318 17.2334 10.6416 17.6533 10.6416C18.0732 10.6416 18.555 10.6383 19.0986 10.6318C19.6423 10.6253 20.041 10.6221 20.2949 10.6221C21.0827 10.6221 21.7012 10.8223 22.1504 11.2227C22.5996 11.6198 22.8242 12.1423 22.8242 12.79C22.8242 13.249 22.6924 13.6722 22.4287 14.0596C22.165 14.4469 21.8102 14.7399 21.3643 14.9385C21.5856 15.2998 21.8428 15.6709 22.1357 16.0518C22.4808 16.5107 22.8193 16.8753 23.1514 17.1455C23.4867 17.4157 23.8577 17.5703 24.2646 17.6094C24.3167 17.8177 24.3102 18.0277 24.2451 18.2393C23.7796 18.2262 22.9235 18.2132 21.6768 18.2002C20.762 17.1325 20.0475 16.1299 19.5332 15.1924H19.3867C19.3867 15.7979 19.403 16.5075 19.4355 17.3213C19.4355 17.3408 19.4437 17.3604 19.46 17.3799C19.4762 17.3994 19.5397 17.4303 19.6504 17.4727C19.7611 17.515 19.9287 17.5524 20.1533 17.585C20.3812 17.6143 20.5081 17.6322 20.5342 17.6387C20.5895 17.821 20.5798 18.0212 20.5049 18.2393C19.3037 18.2132 18.5745 18.2002 18.3174 18.2002C18.1416 18.2002 17.528 18.2132 16.4766 18.2393C16.3952 18.0146 16.3952 17.8047 16.4766 17.6094C17.1829 17.5378 17.5394 17.4417 17.5459 17.3213Z" fill="black"/>
</svg>
